<svg width="13" height="14" viewBox="0 0 13 14" fill="none" xmlns="http://www.w3.org/2000/svg">
    <path d="M5.85174 0.468349C2.15711 3.13485 0.420643 4.35304 0.0434403 5.36212C0.00973859 5.45228 0.00198764 5.54898 0.00511694 5.64518C0.0659535 7.5154 -0.0635756 9.19169 1.25935 12.8541C1.40005 13.2436 1.77341 13.5 2.18755 13.5H10.6675C11.1499 13.5 11.5642 13.1532 11.65 12.6786C12.4888 8.03792 12.497 7.08684 12.5 5.5C12.4936 4.7542 10.4353 3.39763 7.1027 0.524327C6.74925 0.219586 6.23016 0.195234 5.85174 0.468349Z" fill="white"/>
    <path d="M6 10C6 9.72386 6.22386 9.5 6.5 9.5V9.5C6.77614 9.5 7 9.72386 7 10V12C7 12.2761 6.77614 12.5 6.5 12.5V12.5C6.22386 12.5 6 12.2761 6 12V10Z" fill="#E14E31"/>
</svg>
