<svg width="14" height="13" viewBox="0 0 14 13" fill="none" xmlns="http://www.w3.org/2000/svg">
    <path d="M10 9.49464C10 11.1515 7.76142 12.4946 5 12.4946C2.23858 12.4946 0 11.1515 0 9.49464C0 7.83779 2.23858 6.49464 5 6.49464C7.76142 6.49464 10 7.83779 10 9.49464Z" fill="white"/>
    <path fill-rule="evenodd" clip-rule="evenodd" d="M11.9009 11.1938C11.158 11.6076 10.5 10.345 10.5 9.49464C10.5 8.32453 9.67971 7.28853 8.41971 6.65304C8.10978 6.49672 8.15289 5.99464 8.5 5.99464C11.2614 5.99464 13.5 7.33779 13.5 8.99464C13.5 9.86342 12.8845 10.6459 11.9009 11.1938Z" fill="white"/>
    <path d="M8.31921 3C8.31921 4.65685 6.97607 6 5.31921 6C3.66236 6 2.31921 4.65685 2.31921 3C2.31921 1.34315 3.66236 0 5.31921 0C6.97607 0 8.31921 1.34315 8.31921 3Z" fill="white"/>
    <path fill-rule="evenodd" clip-rule="evenodd" d="M9.77323 5.4795C9.15439 5.41134 9.07577 4.65473 9.29981 4.07385C9.42898 3.73895 9.4998 3.37505 9.4998 2.99461C9.4998 2.61419 9.42899 2.25031 9.29983 1.91542C9.0758 1.33454 9.15443 0.577934 9.77328 0.509787C9.86414 0.499781 9.95648 0.494644 10.05 0.494644C11.4307 0.494644 12.55 1.61393 12.55 2.99464C12.55 4.37536 11.4307 5.49464 10.05 5.49464C9.95646 5.49464 9.86411 5.48951 9.77323 5.4795Z" fill="white"/>
</svg>
