<svg width="12" height="8" viewBox="0 0 12 8" fill="none" xmlns="http://www.w3.org/2000/svg">
    <path d="M5.3457 0.358104C5.93931 0.15519 6.55262 0.579503 6.60012 1.20504C6.76466 3.37199 6.78104 4.93484 6.58531 7.12808C6.54075 7.62739 6.12352 8.02238 5.62555 7.96465C4.1139 7.78941 2.79541 6.98511 0.65567 5.09062C0.27869 4.75685 0.214613 4.18885 0.522049 3.7901C1.88806 2.01837 3.14345 1.11089 5.3457 0.358104Z" fill="#24252C"/>
    <path d="M7.6571 4.11369C7.6571 3.77336 7.933 3.49747 8.27333 3.49747H11.0409C11.3812 3.49747 11.6571 3.77336 11.6571 4.11369C11.6571 4.45403 11.3812 4.72992 11.0409 4.72992H8.27333C7.933 4.72992 7.6571 4.45403 7.6571 4.11369Z" fill="#24252C"/>
</svg>
