<svg width="13" height="13" viewBox="0 0 13 13" fill="none" xmlns="http://www.w3.org/2000/svg">
    <mask id="path-1-inside-1_134_33" fill="white">
        <path fill-rule="evenodd" clip-rule="evenodd" d="M12.0497 5V9C12.0497 11.2091 10.2588 13 8.04968 13H4.04968C1.84054 13 0.0496826 11.2091 0.0496826 9V5H12.0497Z"/>
    </mask>
    <path fill-rule="evenodd" clip-rule="evenodd" d="M12.0497 5V9C12.0497 11.2091 10.2588 13 8.04968 13H4.04968C1.84054 13 0.0496826 11.2091 0.0496826 9V5H12.0497Z" fill="#E14E31"/>
    <path d="M12.0497 5H12.1497V4.9H12.0497V5ZM0.0496826 5V4.9H-0.0503174V5H0.0496826ZM11.9497 5V9H12.1497V5H11.9497ZM11.9497 9C11.9497 11.1539 10.2036 12.9 8.04968 12.9V13.1C10.314 13.1 12.1497 11.2644 12.1497 9H11.9497ZM8.04968 12.9H4.04968V13.1H8.04968V12.9ZM4.04968 12.9C1.89577 12.9 0.149683 11.1539 0.149683 9H-0.0503174C-0.0503174 11.2644 1.78531 13.1 4.04968 13.1V12.9ZM0.149683 9V5H-0.0503174V9H0.149683ZM12.0497 4.9H0.0496826V5.1H12.0497V4.9Z" fill="#E14E31" mask="url(#path-1-inside-1_134_33)"/>
    <path fill-rule="evenodd" clip-rule="evenodd" d="M3.04968 0.5C3.04968 0.223858 3.27354 0 3.54968 0C3.82582 0 4.04968 0.223858 4.04968 0.5V1.14285H8.04968V0.5C8.04968 0.223858 8.27354 0 8.54968 0C8.82582 0 9.04968 0.223858 9.04968 0.5V1.14285H10C11.1046 1.14285 12 2.03828 12 3.14285V3.5C12 3.77614 11.7761 4 11.5 4H0.5C0.223858 4 0 3.77614 0 3.5V3.14285C0 2.03828 0.895431 1.14285 2 1.14285H3.04968V0.5Z" fill="#E14E31"/>
    <path d="M8.04968 8.05C8.35344 8.05 8.59968 7.80376 8.59968 7.5C8.59968 7.19624 8.35344 6.95 8.04968 6.95C7.74593 6.95 7.49968 7.19624 7.49968 7.5C7.49968 7.80376 7.74593 8.05 8.04968 8.05Z" fill="white" stroke="white" stroke-width="0.1"/>
    <path d="M8.04968 10.05C8.35344 10.05 8.59968 9.80376 8.59968 9.5C8.59968 9.19624 8.35344 8.95 8.04968 8.95C7.74593 8.95 7.49968 9.19624 7.49968 9.5C7.49968 9.80376 7.74593 10.05 8.04968 10.05Z" fill="white" stroke="white" stroke-width="0.1"/>
    <path d="M4.04968 8.05C4.35344 8.05 4.59968 7.80376 4.59968 7.5C4.59968 7.19624 4.35344 6.95 4.04968 6.95C3.74593 6.95 3.49968 7.19624 3.49968 7.5C3.49968 7.80376 3.74593 8.05 4.04968 8.05Z" fill="white" stroke="white" stroke-width="0.1"/>
    <path d="M6.04968 10.05C6.35344 10.05 6.59968 9.80376 6.59968 9.5C6.59968 9.19624 6.35344 8.95 6.04968 8.95C5.74593 8.95 5.49968 9.19624 5.49968 9.5C5.49968 9.80376 5.74593 10.05 6.04968 10.05Z" fill="white" stroke="white" stroke-width="0.1"/>
    <path d="M4.04968 10.05C4.35344 10.05 4.59968 9.80376 4.59968 9.5C4.59968 9.19624 4.35344 8.95 4.04968 8.95C3.74593 8.95 3.49968 9.19624 3.49968 9.5C3.49968 9.80376 3.74593 10.05 4.04968 10.05Z" fill="white" stroke="white" stroke-width="0.1"/>
    <path d="M6.04968 8.05C6.35344 8.05 6.59968 7.80376 6.59968 7.5C6.59968 7.19624 6.35344 6.95 6.04968 6.95C5.74593 6.95 5.49968 7.19624 5.49968 7.5C5.49968 7.80376 5.74593 8.05 6.04968 8.05Z" fill="white" stroke="white" stroke-width="0.1"/>
</svg>
