<svg width="12" height="13" viewBox="0 0 12 13" fill="none" xmlns="http://www.w3.org/2000/svg">
    <path fill-rule="evenodd" clip-rule="evenodd" d="M4 0C1.79086 0 0 1.79086 0 4V9C0 11.2091 1.79086 13 4 13H8C10.2091 13 12 11.2091 12 9V6C12 5.44772 11.5523 5 11 5H8C7.44772 5 7 4.55228 7 4V1C7 0.447715 6.55228 0 6 0H4Z" fill="#E14E31" fill-opacity="0.75"/>
    <path fill-rule="evenodd" clip-rule="evenodd" d="M8.84832 0.498715C8.54156 0.191962 8 0.216584 8 0.650398V2.6504C8 3.20268 8.44772 3.6504 9 3.6504H11C11.4338 3.6504 11.4584 3.10883 11.1517 2.80208L8.84832 0.498715Z" fill="#E14E31"/>
    <path d="M2 8C2 7.72386 2.22386 7.5 2.5 7.5H6.5C6.77614 7.5 7 7.72386 7 8C7 8.27614 6.77614 8.5 6.5 8.5H2.5C2.22386 8.5 2 8.27614 2 8Z" fill="white"/>
    <path d="M2 10C2 9.72386 2.22386 9.5 2.5 9.5H4.5C4.77614 9.5 5 9.72386 5 10C5 10.2761 4.77614 10.5 4.5 10.5H2.5C2.22386 10.5 2 10.2761 2 10Z" fill="white"/>
</svg>
