<svg width="11" height="14" viewBox="0 0 11 14" fill="none" xmlns="http://www.w3.org/2000/svg">
    <mask id="path-1-outside-1_53_28" maskUnits="userSpaceOnUse" x="0" y="0" width="11" height="12" fill="black">
        <rect fill="white" width="11" height="12"/>
        <path fill-rule="evenodd" clip-rule="evenodd" d="M4.05676 1.85355C4.2691 1.52737 5.0286 1 5.5 1C5.9714 1 6.7309 1.52737 6.94324 1.85355C8.15623 2.4681 9 3.7842 9 5V7V8.19349C9.64462 8.54396 10 9.00061 10 9.5C10 10.6046 8.26142 11.5 5.5 11.5C2.73858 11.5 1 10.6046 1 9.5C1 9.00061 1.35538 8.54396 2 8.19349V7V5C2 3.7842 2.84377 2.4681 4.05676 1.85355Z"/>
    </mask>
    <path fill-rule="evenodd" clip-rule="evenodd" d="M4.05676 1.85355C4.2691 1.52737 5.0286 1 5.5 1C5.9714 1 6.7309 1.52737 6.94324 1.85355C8.15623 2.4681 9 3.7842 9 5V7V8.19349C9.64462 8.54396 10 9.00061 10 9.5C10 10.6046 8.26142 11.5 5.5 11.5C2.73858 11.5 1 10.6046 1 9.5C1 9.00061 1.35538 8.54396 2 8.19349V7V5C2 3.7842 2.84377 2.4681 4.05676 1.85355Z" fill="black"/>
    <path d="M4.05676 1.85355L4.14715 2.03196L4.19506 2.00769L4.22437 1.96267L4.05676 1.85355ZM6.94324 1.85355L6.77563 1.96267L6.80494 2.00769L6.85285 2.03196L6.94324 1.85355ZM9 8.19349H8.8V8.3124L8.90447 8.3692L9 8.19349ZM2 8.19349L2.09553 8.3692L2.2 8.3124V8.19349H2ZM5.5 0.8C5.20578 0.8 4.85788 0.957659 4.575 1.135C4.28958 1.31393 4.0184 1.54588 3.88914 1.74444L4.22437 1.96267C4.30745 1.83504 4.52219 1.64021 4.78746 1.47391C5.05526 1.30603 5.32282 1.2 5.5 1.2V0.8ZM7.11086 1.74444C6.9816 1.54588 6.71042 1.31393 6.425 1.135C6.14212 0.957659 5.79422 0.8 5.5 0.8V1.2C5.67718 1.2 5.94474 1.30603 6.21254 1.47391C6.47781 1.64021 6.69255 1.83504 6.77563 1.96267L7.11086 1.74444ZM9.2 5C9.2 3.70104 8.30661 2.32008 7.03363 1.67514L6.85285 2.03196C8.00585 2.61611 8.8 3.86737 8.8 5H9.2ZM8.8 5V7H9.2V5H8.8ZM8.8 7V8.19349H9.2V7H8.8ZM10.2 9.5C10.2 8.89418 9.76894 8.38391 9.09553 8.01778L8.90447 8.3692C9.52029 8.70402 9.8 9.10703 9.8 9.5H10.2ZM5.5 11.7C6.89925 11.7 8.0554 11.4736 8.86973 11.0956C9.67469 10.722 10.2 10.1702 10.2 9.5H9.8C9.8 9.9344 9.45602 10.3825 8.70134 10.7328C7.95603 11.0787 6.86217 11.3 5.5 11.3V11.7ZM0.8 9.5C0.8 10.1702 1.32531 10.722 2.13027 11.0956C2.9446 11.4736 4.10075 11.7 5.5 11.7V11.3C4.13783 11.3 3.04397 11.0787 2.29866 10.7328C1.54398 10.3825 1.2 9.9344 1.2 9.5H0.8ZM1.90447 8.01778C1.23106 8.38391 0.8 8.89418 0.8 9.5H1.2C1.2 9.10703 1.47971 8.70402 2.09553 8.3692L1.90447 8.01778ZM2.2 8.19349V7H1.8V8.19349H2.2ZM2.2 7V5H1.8V7H2.2ZM3.96637 1.67514C2.69339 2.32008 1.8 3.70104 1.8 5H2.2C2.2 3.86737 2.99415 2.61611 4.14715 2.03196L3.96637 1.67514Z" fill="black" mask="url(#path-1-outside-1_53_28)"/>
    <path fill-rule="evenodd" clip-rule="evenodd" d="M3.94091 12.5C3.86389 12.5 3.81656 12.5831 3.86075 12.6461C4.22241 13.1624 4.82177 13.5 5.49997 13.5C6.17818 13.5 6.77754 13.1624 7.1392 12.6461C7.18338 12.5831 7.13605 12.5 7.05904 12.5H3.94091Z" fill="black"/>
</svg>
